<?xml version="1.0" encoding="UTF-8"?>
<svg xmlns="http://www.w3.org/2000/svg" xmlns:xlink="http://www.w3.org/1999/xlink" width="25pt" height="25pt" viewBox="0 0 25 25" version="1.1">
<g id="surface1">
<path style=" stroke:none;fill-rule:nonzero;fill:#000000;fill-opacity:1;" d="M 1 1 C 0.445313 1 0 1.445313 0 2 C 0 2.554688 0.445313 3 1 3 C 1.554688 3 2 2.554688 2 2 L 4.328125 2 C 5.371094 2 5.773438 2.335938 6.109375 3.46875 L 10.109375 19.609375 C 10.320313 20.414063 10.5625 21.304688 11.46875 21.734375 C 11.183594 22.078125 11 22.515625 11 23 C 11 24.101563 11.898438 25 13 25 C 14.101563 25 15 24.101563 15 23 C 15 22.632813 14.890625 22.296875 14.71875 22 L 17.78125 22 C 17.609375 22.296875 17.5 22.632813 17.5 23 C 17.5 24.101563 18.398438 25 19.5 25 C 20.601563 25 21.5 24.101563 21.5 23 C 21.5 22.480469 21.296875 22.011719 20.96875 21.65625 C 20.984375 21.605469 21 21.554688 21 21.5 C 21 21.226563 20.773438 21 20.5 21 L 12.859375 21 C 11.511719 21 11.367188 20.460938 11.078125 19.375 L 10.734375 18 L 19.90625 18 C 20.113281 18 20.304688 17.867188 20.375 17.671875 L 23.96875 8.171875 C 24.027344 8.019531 24 7.851563 23.90625 7.71875 C 23.8125 7.585938 23.664063 7.5 23.5 7.5 L 8.140625 7.5 L 7.078125 3.203125 C 6.738281 2.058594 6.160156 1 4.328125 1 Z M 13 22 C 13.550781 22 14 22.449219 14 23 C 14 23.550781 13.550781 24 13 24 C 12.449219 24 12 23.550781 12 23 C 12 22.449219 12.449219 22 13 22 Z M 19.5 22 C 20.050781 22 20.5 22.449219 20.5 23 C 20.5 23.550781 20.050781 24 19.5 24 C 18.949219 24 18.5 23.550781 18.5 23 C 18.5 22.449219 18.949219 22 19.5 22 Z "/>
</g>
</svg>
