<?xml version="1.0" encoding="UTF-8"?>
<svg xmlns="http://www.w3.org/2000/svg" xmlns:xlink="http://www.w3.org/1999/xlink" width="25pt" height="25pt" viewBox="0 0 25 25" version="1.1">
<g id="surface1">
<path style=" stroke:none;fill-rule:nonzero;fill:#000000;fill-opacity:1;" d="M 0.90625 1 C 0.890625 1.003906 0.875 1.007813 0.859375 1.015625 C 0.375 1.085938 0 1.496094 0 2 C 0 2.554688 0.445313 3 1 3 C 1.554688 3 2 2.554688 2 2 L 4.328125 2 C 4.953125 2 5.273438 2.128906 5.515625 2.34375 C 5.75 2.554688 5.945313 2.914063 6.109375 3.46875 L 10.109375 19.609375 C 10.257813 20.179688 10.410156 20.773438 10.828125 21.25 C 11 21.449219 11.21875 21.609375 11.484375 21.734375 C 11.191406 22.082031 11 22.515625 11 23 C 11 24.101563 11.898438 25 13 25 C 14.101563 25 15 24.101563 15 23 C 15 22.632813 14.890625 22.296875 14.71875 22 L 17.78125 22 C 17.609375 22.296875 17.5 22.632813 17.5 23 C 17.5 24.101563 18.398438 25 19.5 25 C 20.601563 25 21.5 24.101563 21.5 23 C 21.5 22.484375 21.289063 22.027344 20.96875 21.671875 C 21.023438 21.519531 21 21.347656 20.910156 21.214844 C 20.816406 21.078125 20.664063 21 20.5 21 L 12.859375 21 C 12.085938 21 11.773438 20.835938 11.5625 20.59375 C 11.351563 20.351563 11.226563 19.933594 11.078125 19.375 L 11.078125 19.359375 L 10.734375 18 L 19.90625 18 C 20.117188 18 20.304688 17.867188 20.375 17.671875 L 23.96875 8.171875 C 24.027344 8.019531 24.007813 7.847656 23.914063 7.710938 C 23.820313 7.578125 23.664063 7.5 23.5 7.5 L 8.140625 7.5 L 7.078125 3.234375 C 7.078125 3.226563 7.078125 3.210938 7.078125 3.203125 C 6.886719 2.558594 6.640625 2 6.1875 1.59375 C 5.734375 1.1875 5.101563 1 4.328125 1 L 1 1 C 0.984375 1 0.96875 1 0.953125 1 C 0.9375 1 0.921875 1 0.90625 1 Z M 8.390625 8.5 L 22.78125 8.5 L 19.5625 17 L 10.5 17 Z M 13 22 C 13.558594 22 14 22.441406 14 23 C 14 23.558594 13.558594 24 13 24 C 12.441406 24 12 23.558594 12 23 C 12 22.441406 12.441406 22 13 22 Z M 19.5 22 C 20.058594 22 20.5 22.441406 20.5 23 C 20.5 23.558594 20.058594 24 19.5 24 C 18.941406 24 18.5 23.558594 18.5 23 C 18.5 22.441406 18.941406 22 19.5 22 Z "/>
</g>
</svg>
