<?xml version="1.0" encoding="UTF-8"?>
<svg xmlns="http://www.w3.org/2000/svg" xmlns:xlink="http://www.w3.org/1999/xlink" width="25pt" height="25pt" viewBox="0 0 25 25" version="1.1">
<g id="surface1">
<path style=" stroke:none;fill-rule:nonzero;fill:#000000;fill-opacity:1;" d="M 10.5 1.5 C 5.800781 1.5 2 5.300781 2 10 C 2 14.699219 5.800781 18.5 10.5 18.5 C 12.179688 18.5 13.730469 18.007813 15.046875 17.171875 L 21.1875 23.3125 L 23.3125 21.1875 L 17.25 15.140625 C 18.339844 13.710938 19 11.9375 19 10 C 19 5.300781 15.199219 1.5 10.5 1.5 Z M 10.5 3.5 C 14.101563 3.5 17 6.398438 17 10 C 17 13.601563 14.101563 16.5 10.5 16.5 C 6.898438 16.5 4 13.601563 4 10 C 4 6.398438 6.898438 3.5 10.5 3.5 Z "/>
</g>
</svg>
