<?xml version="1.0" encoding="UTF-8"?>
<svg xmlns="http://www.w3.org/2000/svg" xmlns:xlink="http://www.w3.org/1999/xlink" width="25pt" height="25pt" viewBox="0 0 25 25" version="1.1">
<g id="surface1">
<path style=" stroke:none;fill-rule:nonzero;fill:#000000;fill-opacity:1;" d="M 15.46875 16.265625 C 15.390625 15.457031 15.421875 14.894531 15.421875 14.15625 C 15.789063 13.96875 16.441406 12.746094 16.550781 11.714844 C 16.835938 11.691406 17.289063 11.414063 17.421875 10.304688 C 17.492188 9.710938 17.210938 9.378906 17.039063 9.273438 C 17.503906 7.867188 18.476563 3.523438 15.242188 3.074219 C 14.910156 2.492188 14.058594 2.195313 12.953125 2.195313 C 8.523438 2.277344 7.992188 5.539063 8.960938 9.273438 C 8.789063 9.378906 8.507813 9.710938 8.578125 10.304688 C 8.710938 11.414063 9.164063 11.691406 9.449219 11.714844 C 9.558594 12.746094 10.238281 13.96875 10.605469 14.15625 C 10.605469 14.894531 10.632813 15.457031 10.558594 16.265625 C 9.683594 18.617188 3.773438 17.957031 3.5 22.5 L 22.5 22.5 C 22.226563 17.957031 16.34375 18.617188 15.46875 16.265625 Z "/>
</g>
</svg>
